<svg xmlns="http://www.w3.org/2000/svg" xmlns:xlink="http://www.w3.org/1999/xlink" version="1.1" x="0px" y="0px" viewBox="0 0 70 70" style="enable-background:new 0 0 70 70;" xml:space="preserve" preserveAspectRatio="none" width="100%" height="100%" class="" fill="#FFCE71"><g><path d="M40.55302,8.57504c-5.37012,0-9.74011,4.35999-9.74011,9.72998s4.37,9.73999,9.74011,9.73999   c5.36987,0,9.72998-4.37,9.72998-9.73999S45.92289,8.57504,40.55302,8.57504z M45.25004,21.59195   c0.39063,0.39063,0.39063,1.02344,0,1.41406c-0.39061,0.39061-1.02343,0.39064-1.41406,0l-3.28467-3.28467l-3.28467,3.28467   c-0.39061,0.39061-1.02343,0.39064-1.41406,0c-0.39063-0.39063-0.39063-1.02344,0-1.41406l3.28467-3.28467l-3.28467-3.28467   c-0.39063-0.39063-0.39063-1.02344,0-1.41406s1.02344-0.39063,1.41406,0l3.28467,3.28467l3.28467-3.28467   c0.39063-0.39063,1.02344-0.39063,1.41406,0s0.39063,1.02344,0,1.41406l-3.28467,3.28467L45.25004,21.59195z"></path><g><path d="M23.64286,45.14505l-4.06995,6.53998h42.02002c1.03067,0,4.54993,1.76913,4.54993,5.48999    c0,3.02002-2.45996,5.47998-5.48999,5.47998c-3.02002,0-5.48999-2.45996-5.48999-5.47998    c0-1.32001,0.46997-2.53998,1.26001-3.48999h-33c2.89416,3.48019,0.46573,8.96997-4.22998,8.96997    c-5.86444,0-7.63179-8.03468-2.28003-10.46997c0-0.10064,0.34286-0.56073,5.08008-8.16998    c0-0.01001-0.01001-0.02002-0.01001-0.04004c-0.08035-0.22742-0.06947-0.19348-0.08008-0.21997l0.02002,0.02997    c-1.38037-3.67537,3.92657,11.79544-11.50995-34.44H4.00291c-0.56,0-1-0.44995-1-1c0-0.54999,0.44-1,1-1h7.09003    c0.40997,0,0.77002,0.25,0.92999,0.63l3.76007,9.33002h13.07996c-0.04004,0.33002-0.05005,0.65997-0.05005,1    c0,6.46997,5.27002,11.73999,11.74011,11.73999c6.46997,0,11.72998-5.27002,11.72998-11.73999    c0-0.34003-0.01001-0.66998-0.05005-1h13.76001c0.07996,0,0.16992,0.01001,0.23999,0.02997h0.01001    c0.26001,0.07001,0.48999,0.24005,0.62988,0.48004c0.13013,0.23999,0.16016,0.51996,0.08008,0.78998l-7.96997,25.84003    c-0.13,0.41998-0.52002,0.70001-0.95996,0.70001H23.64286z"></path></g></g></svg>